<svg width="668" height="906" viewBox="0 0 668 906" fill="none" xmlns="http://www.w3.org/2000/svg">
<path d="M518.504 172.58C537.504 162.01 567.114 183.58 580.204 195.69C595.504 209.77 607.844 227.69 617.334 246.14C660.424 329.9 683.074 429.55 647.664 520.31C635.739 551.036 617.134 578.727 593.194 601.38C579.734 614.05 552.034 626 547.994 645.38C547.128 650.192 547.471 655.144 548.994 659.79C554.344 677.55 570.494 689.86 582.834 702.79C642.084 765 599.244 861.44 535.894 903" stroke="#CCDDE2" stroke-width="4.72" stroke-miterlimit="10"/>
<path d="M53.8641 499.181C72.3641 479.531 96.0041 466.251 119.774 454.031C145.514 440.801 170.844 427.481 194.244 410.301C208.49 399.864 221.968 388.418 234.574 376.051" stroke="#CCDDE2" stroke-width="4.72" stroke-miterlimit="10"/>
<path d="M23.8342 748.07C0.194168 687 -5.80583 617 18.8542 556" stroke="#CCDDE2" stroke-width="4.72" stroke-miterlimit="10"/>
<path d="M333.604 116.761V51.3008C333.604 46.7921 331.813 42.4681 328.625 39.28C325.437 36.0918 321.113 34.3008 316.604 34.3008H99.8342C95.3252 34.3008 91.0012 36.0918 87.8132 39.28C84.6252 42.4681 82.8342 46.7921 82.8342 51.3008V359.121C82.8532 363.617 84.6522 367.923 87.8382 371.096C91.0242 374.269 95.3382 376.051 99.8342 376.051H316.634C318.739 376.067 320.826 375.666 322.774 374.871" stroke="black" stroke-width="4.72" stroke-linecap="round" stroke-linejoin="round"/>
<path d="M309.724 44.6992H106.754C97.7681 44.6992 90.4841 51.9836 90.4841 60.969V349.439C90.4841 358.425 97.7681 365.709 106.754 365.709H309.724C318.71 365.709 325.994 358.425 325.994 349.439V60.969C325.994 51.9836 318.71 44.6992 309.724 44.6992Z" fill="#3FBDF1"/>
<path d="M306.564 69.5391H112.484C107.988 69.5391 104.344 73.1831 104.344 77.6791V121.499C104.344 125.995 107.988 129.639 112.484 129.639H306.564C311.06 129.639 314.704 125.995 314.704 121.499V77.6791C314.704 73.1831 311.06 69.5391 306.564 69.5391Z" fill="#3FBDF1"/>
<path d="M208.234 94.8619C211.669 94.8619 214.454 92.0769 214.454 88.6419C214.454 85.2069 211.669 82.4219 208.234 82.4219C204.799 82.4219 202.014 85.2069 202.014 88.6419C202.014 92.0769 204.799 94.8619 208.234 94.8619Z" fill="#D7E8F0"/>
<path d="M190.864 116.761C190.864 112.154 192.694 107.736 195.951 104.478C199.209 101.221 203.627 99.3911 208.234 99.3911C212.841 99.3911 217.259 101.221 220.516 104.478C223.774 107.736 225.604 112.154 225.604 116.761H190.864Z" fill="#D7E8F0"/>
<path d="M209.504 194.051C202.877 194.047 196.397 196.009 190.885 199.688C185.373 203.368 181.076 208.599 178.538 214.722C176 220.844 175.335 227.581 176.627 234.081C177.919 240.582 181.11 246.553 185.796 251.239C190.482 255.925 196.453 259.116 202.953 260.408C209.454 261.7 216.191 261.035 222.313 258.497C228.435 255.959 233.667 251.662 237.347 246.15C241.026 240.638 242.988 234.158 242.984 227.531C242.981 218.652 239.453 210.138 233.175 203.86C226.897 197.582 218.383 194.053 209.504 194.051ZM209.504 252.931C208.207 252.931 206.963 252.416 206.046 251.499C205.129 250.581 204.614 249.338 204.614 248.041C204.614 246.744 205.129 245.5 206.046 244.583C206.963 243.666 208.207 243.151 209.504 243.151C210.801 243.151 212.045 243.666 212.962 244.583C213.879 245.5 214.394 246.744 214.394 248.041C214.394 249.338 213.879 250.581 212.962 251.499C212.045 252.416 210.801 252.931 209.504 252.931ZM215.704 215.281C214.654 222.541 213.764 230.191 211.634 237.281C211.114 238.961 207.924 238.961 207.404 237.281C205.874 231.971 204.698 226.566 203.884 221.101C203.234 217.101 200.884 210.701 203.134 206.821C205.074 203.381 210.584 202.951 213.764 204.751C217.704 207.001 216.194 211.671 215.704 215.281Z" fill="#D7E8F0"/>
<path d="M209.504 252.928C212.205 252.928 214.394 250.739 214.394 248.038C214.394 245.338 212.205 243.148 209.504 243.148C206.803 243.148 204.614 245.338 204.614 248.038C204.614 250.739 206.803 252.928 209.504 252.928Z" fill="white"/>
<path d="M215.704 215.28C214.654 222.54 213.764 230.19 211.634 237.28C211.114 238.96 207.924 238.96 207.404 237.28C205.874 231.971 204.698 226.566 203.884 221.1C203.234 217.1 200.884 210.7 203.134 206.82C205.074 203.38 210.584 202.95 213.764 204.75C217.704 207 216.194 211.67 215.704 215.28Z" fill="white"/>
<path d="M125.384 156.48H288.944" stroke="white" stroke-width="4.72" stroke-miterlimit="10"/>
<path d="M125.384 172.57H288.944" stroke="white" stroke-width="4.72" stroke-miterlimit="10"/>
<path d="M125.384 276.25H288.944" stroke="white" stroke-width="4.72" stroke-miterlimit="10"/>
<path d="M328.764 317.742C329.384 318.222 330.464 116.042 330.464 116.042L268.934 92.262C268.934 92.262 223.194 204.372 225.964 205.502L238.314 210.502C238.314 210.502 241.364 208.092 248.434 225.502C255.504 242.912 306.464 300.592 328.764 317.742Z" fill="white"/>
<path d="M163.374 291.48H250.954" stroke="white" stroke-width="4.72" stroke-miterlimit="10"/>
<path d="M574.974 408.71C574.174 417.43 563.414 517.45 573.844 536.98C577.624 544.05 540.104 537.28 537.844 536.76C503.844 528.76 472.004 514.01 442.204 496.07C412.404 478.13 386.074 454.52 355.004 438.61C349.264 435.67 336.554 429.23 340.314 420.8C346.714 406.44 354.574 386.62 355.194 369.09L355.004 346.09C355.004 346.09 350.464 331.65 365.274 344.3C380.084 356.95 447.854 390.3 491.724 351.66C535.594 313.02 538.194 282.46 538.194 282.46C538.194 282.46 510.104 213.72 430.134 255.77L458.384 182.77C458.384 182.77 454.514 177.86 466.754 178.77C478.994 179.68 501.694 173.63 504.504 151.2C504.504 151.2 504.724 143.88 517.674 157.72C530.624 171.56 591.824 225.61 574.974 408.71Z" fill="#2E2E2E"/>
<path d="M417.754 149.769C424.616 144.737 432.3 140.937 440.464 138.539" stroke="black" stroke-width="4.72" stroke-miterlimit="10"/>
<path d="M387.354 491.07L332.354 689.91L282.354 870.73L250.514 873.73C243.214 874.403 236.429 877.777 231.486 883.191C226.544 888.605 223.801 895.67 223.794 903H322.264L393.584 780.08L446.634 688.63L529.574 545.63C531.974 541.46 534.304 537.29 536.574 533.03C536.612 532.981 536.633 532.922 536.634 532.86" stroke="black" stroke-width="4.72" stroke-miterlimit="10"/>
<path d="M572.934 424.002C573.684 419.142 574.344 414.282 574.934 409.392C574.934 409.162 574.934 408.962 574.994 408.732C578.36 379.118 579.076 349.263 577.134 319.522C577.147 319.436 577.147 319.348 577.134 319.262C574.934 286.892 568.994 252.892 557.134 219.742C553.69 210.181 549.431 200.933 544.404 192.102C544.034 191.372 543.614 190.652 543.154 189.932C541.574 187.172 539.874 184.482 538.154 181.822C535.824 178.312 533.354 174.902 530.764 171.652C526.902 166.717 522.619 162.126 517.964 157.932C517.934 157.921 517.906 157.904 517.884 157.882C517.861 157.859 517.844 157.832 517.834 157.802C514.375 154.739 510.699 151.932 506.834 149.402C506.114 148.912 505.394 148.452 504.664 147.992C504.551 147.905 504.43 147.828 504.304 147.762" stroke="black" stroke-width="4.72" stroke-miterlimit="10"/>
<path d="M446.634 688.629L523.974 902.999H412.374C412.374 896.034 414.902 889.307 419.489 884.066C424.077 878.826 430.411 875.43 437.314 874.509L461.604 871.259C461.604 871.259 428.944 828.259 393.604 780.069" stroke="black" stroke-width="4.72" stroke-miterlimit="10"/>
<path d="M460.354 177.699L426.834 264.259C425.822 266.872 424.3 269.258 422.357 271.277C420.414 273.297 418.088 274.909 415.516 276.021C412.944 277.134 410.176 277.723 407.374 277.755C404.572 277.787 401.791 277.262 399.194 276.209L319.794 244.069C319.755 243.961 319.721 243.851 319.694 243.739C318.694 239.739 308.434 201.399 295.994 201.399C286.444 201.399 290.994 220.309 294.994 231.009C295.454 232.159 295.884 233.239 296.274 234.159L295.654 233.899L233.484 208.559L272.694 105.199L349.244 134.769L460.354 177.699Z" fill="#D7E8F0"/>
<path d="M296.254 234.162C292.084 224.612 285.444 201.402 296.004 201.402C308.444 201.402 318.694 239.772 319.704 243.742L319.804 244.072L399.194 276.222C401.795 277.273 404.579 277.796 407.385 277.761C410.19 277.725 412.96 277.132 415.534 276.015C418.107 274.898 420.433 273.28 422.374 271.255C424.316 269.231 425.836 266.84 426.844 264.222L464.194 167.722L345.474 121.832L268.934 92.262L225.934 205.502L296.254 234.162Z" stroke="black" stroke-width="4.72" stroke-miterlimit="10"/>
<path d="M542.344 231.73C544.724 273.23 535.454 326.32 482.544 357.57C404.274 403.85 300.684 299 262.334 248.12C255.997 239.764 250.645 230.704 246.384 221.12C245.092 218.331 244.009 215.45 243.144 212.5" stroke="black" stroke-width="4.72" stroke-miterlimit="10"/>
<path d="M354.314 337.129C354.314 337.129 360.314 380.839 341.814 417.999L341.894 417.899C341.894 417.899 341.894 417.969 341.834 417.999C313.434 471.269 272.774 556.249 295.454 617.999C303.164 638.999 316.454 663.999 332.344 689.919" stroke="black" stroke-width="4.72" stroke-miterlimit="10"/>
<path d="M492.024 83.831L492.084 84.111C492.565 89.966 490.701 95.772 486.902 100.252C483.102 104.732 477.678 107.52 471.824 108.001C468.076 108.326 464.309 107.668 460.894 106.091C459.916 105.676 458.976 105.178 458.084 104.601C457.719 104.347 457.421 104.008 457.215 103.614C457.009 103.219 456.901 102.781 456.901 102.336C456.901 101.891 457.009 101.453 457.215 101.059C457.421 100.664 457.719 100.325 458.084 100.071C462.384 96.971 466.314 92.651 467.434 87.591C467.77 86.035 467.798 84.428 467.514 82.861C467.208 80.864 466.384 78.983 465.124 77.404C463.864 75.825 462.213 74.603 460.334 73.861C459.746 73.687 459.137 73.589 458.524 73.571C456.794 73.431 454.524 73.651 454.074 74.931C456.282 68.726 456.373 61.964 454.334 55.701C453.066 51.8262 450.928 48.2928 448.084 45.3712C448.213 46.5031 448.092 47.6496 447.727 48.7291C447.363 49.8086 446.765 50.7945 445.977 51.6166C445.188 52.4388 444.228 53.077 443.164 53.486C442.101 53.894 440.96 54.063 439.824 53.981C431.014 53.681 429.354 45.2811 429.354 45.2811C429.354 45.2811 429.354 45.3812 429.354 45.4412C425.514 55.011 414.354 55.271 406.354 51.0211C403.517 49.5655 401.025 47.5197 399.044 45.0211C396.774 35.2111 404.864 25.7312 414.194 24.3712C414.394 18.1312 418.944 11.4511 425.084 10.9411C427.223 10.7583 429.372 11.1527 431.307 12.0831C433.242 13.0136 434.891 14.446 436.084 16.2311C436.254 16.5011 436.444 16.7911 436.594 17.0911C439.104 13.4511 443.214 9.46113 447.594 9.09113C450.632 8.87793 453.662 9.60393 456.274 11.1709C458.886 12.7379 460.952 15.07 462.194 17.8511C462.194 17.4211 466.044 15.6611 466.434 15.5011C470.03 14.1341 473.978 14.0024 477.657 15.1267C481.336 16.251 484.537 18.5675 486.754 21.7111C486.977 22.5802 487.124 23.4668 487.194 24.3612C487.414 27.0357 487.003 29.7245 485.994 32.2111C487.415 32.6164 488.743 33.2958 489.904 34.2111C492.416 36.0503 494.102 38.8065 494.594 41.8811C494.644 42.1911 494.674 42.5011 494.694 42.8111C494.894 45.1542 494.393 47.5039 493.254 49.5611C496.211 50.4059 498.897 52.008 501.046 54.209C503.194 56.41 504.731 59.134 505.504 62.111C505.748 63.096 505.912 64.1 505.994 65.111C506.335 69.396 505.106 73.658 502.535 77.103C499.965 80.547 496.228 82.939 492.024 83.831Z" fill="#3FBDF1"/>
<path d="M492.024 83.829L492.084 84.109C492.565 89.964 490.701 95.77 486.902 100.25C483.102 104.73 477.679 107.518 471.824 107.999C468.077 108.324 464.309 107.666 460.894 106.089C465.194 102.989 469.124 98.659 470.234 93.599C470.628 91.718 470.585 89.771 470.108 87.909C469.631 86.047 468.734 84.32 467.484 82.859C467.178 80.863 466.354 78.981 465.094 77.402C463.834 75.823 462.183 74.601 460.304 73.859C459.716 73.685 459.107 73.587 458.494 73.569C459.087 67.315 457.616 61.038 454.304 55.699C453.036 51.8244 450.898 48.2909 448.054 45.3693C448.183 46.5012 448.062 47.6478 447.697 48.7273C447.333 49.8068 446.736 50.7927 445.947 51.6148C445.158 52.437 444.198 53.075 443.134 53.484C442.071 53.892 440.93 54.062 439.794 53.979C430.984 53.679 429.324 45.2793 429.324 45.2793C429.324 45.2793 429.324 45.3793 429.324 45.4393C425.484 55.009 414.324 55.269 406.324 51.0193C403.487 49.5636 400.995 47.5178 399.014 45.0193C396.744 35.2093 404.834 25.7293 414.164 24.3693C414.364 18.1293 418.914 11.4493 425.054 10.9393C427.193 10.7565 429.342 11.1508 431.277 12.0813C433.212 13.0117 434.861 14.4442 436.054 16.2293C436.224 16.4993 436.414 16.7893 436.564 17.0893C439.074 13.4493 443.184 9.45931 447.564 9.08931C450.607 8.86971 453.644 9.59271 456.262 11.1601C458.879 12.7275 460.951 15.0631 462.194 17.8493C462.194 17.4193 466.044 15.6593 466.434 15.4993C470.03 14.1323 473.978 14.0005 477.657 15.1249C481.336 16.2492 484.537 18.5657 486.754 21.7093C486.977 22.5783 487.124 23.465 487.194 24.3593C487.414 27.0338 487.003 29.7227 485.994 32.2093C487.415 32.6146 488.744 33.294 489.904 34.2093C489.721 35.5831 489.361 36.9274 488.834 38.2093C491.052 38.8588 493.047 40.1121 494.594 41.8293C494.644 42.1393 494.674 42.4493 494.694 42.7593C494.894 45.1024 494.393 47.452 493.254 49.5093C494.742 49.9338 496.168 50.5525 497.494 51.3493C497.278 52.8113 496.804 54.223 496.094 55.519C499.875 56.583 503.189 58.886 505.504 62.059C505.748 63.044 505.912 64.048 505.994 65.059C506.348 69.352 505.125 73.627 502.553 77.082C499.981 80.537 496.238 82.936 492.024 83.829Z" fill="#3FBDF1"/>
<path d="M414.314 63.7891C414.314 63.7891 426.994 63.9691 429.904 74.6691" stroke="black" stroke-width="4.72" stroke-miterlimit="10"/>
<path d="M411.044 95.852C408.159 96.564 405.164 96.71 402.224 96.282C401.671 96.187 401.15 95.96 400.704 95.62C400.259 95.279 399.902 94.836 399.665 94.328C399.429 93.82 399.318 93.262 399.344 92.702C399.37 92.142 399.531 91.596 399.814 91.112C402.454 86.642 405.174 82.222 408.134 77.972C408.598 77.431 408.884 76.761 408.954 76.052C408.954 76.052 407.734 62.822 410.404 52.6719" stroke="black" stroke-width="4.72" stroke-miterlimit="10"/>
<path d="M421.022 75.049C421.29 72.917 420.037 71.004 418.224 70.776C416.41 70.548 414.722 72.091 414.454 74.222C414.186 76.354 415.439 78.267 417.253 78.495C419.066 78.723 420.754 77.18 421.022 75.049Z" fill="black"/>
<path d="M480.934 105.191C481.204 107.841 493.094 126.191 503.844 146.451C503.839 146.484 503.839 146.518 503.844 146.551C504.044 146.981 504.244 147.441 504.474 147.901" stroke="black" stroke-width="4.72" stroke-linecap="round" stroke-linejoin="round"/>
<path d="M438.044 124.59L441.784 151.21" stroke="black" stroke-width="4.72" stroke-miterlimit="10"/>
<path d="M406.464 96.52C406.464 96.52 411.884 122.88 425.214 126.87C438.544 130.86 450.114 114.23 450.114 114.23" stroke="black" stroke-width="4.72" stroke-linecap="round" stroke-linejoin="round"/>
<path d="M410.104 108.41C411.875 109.445 413.876 110.022 415.926 110.088C417.976 110.154 420.01 109.708 421.844 108.79" stroke="black" stroke-width="4.72" stroke-linecap="round" stroke-linejoin="round"/>
<path d="M435.134 15.8897C434.975 13.8449 434.286 11.8768 433.134 10.1797C431.669 7.9309 429.492 6.2382 426.952 5.3723C424.411 4.5063 421.654 4.5169 419.12 5.4026C416.587 6.2882 414.423 7.9976 412.975 10.2577C411.527 12.5177 410.879 15.1978 411.134 17.8697" stroke="black" stroke-width="4.72" stroke-miterlimit="10" stroke-linecap="round"/>
<path d="M429.974 34.0919C429.722 31.2032 428.771 28.4192 427.203 25.9802C425.635 23.5411 423.498 21.5202 420.974 20.0919C408.264 12.9819 391.974 26.7919 396.524 40.4719C398.124 45.2319 401.934 48.6919 406.274 50.9919C414.274 55.242 425.474 54.992 429.274 45.4119L429.334 45.2619C429.334 45.2619 430.994 53.652 439.804 53.962C440.942 54.042 442.083 53.871 443.147 53.462C444.211 53.052 445.173 52.4131 445.963 51.5907C446.753 50.7683 447.352 49.7822 447.719 48.7024C448.085 47.6225 448.21 46.4753 448.084 45.3419C455.664 53.142 457.644 64.802 454.084 74.912C454.734 73.092 459.084 73.422 460.344 73.842C465.764 75.732 468.654 82.142 467.454 87.582C466.324 92.672 462.394 96.972 458.114 100.092C457.749 100.345 457.451 100.683 457.245 101.076C457.039 101.47 456.931 101.908 456.931 102.352C456.931 102.796 457.039 103.234 457.245 103.627C457.451 104.021 457.749 104.359 458.114 104.612C462.189 107.231 467.018 108.427 471.844 108.012C477.697 107.53 483.119 104.744 486.918 100.266C490.717 95.788 492.583 89.985 492.104 84.132L492.044 83.852C495.907 83.043 499.389 80.964 501.933 77.946C504.477 74.928 505.937 71.145 506.081 67.201C506.224 63.257 505.044 59.377 502.726 56.182C500.409 52.9873 497.088 50.6601 493.294 49.5719C494.433 47.5146 494.934 45.1649 494.734 42.8219C494.459 39.6432 492.938 36.7025 490.502 34.6416C488.066 32.5807 484.914 31.567 481.734 31.8219" stroke="black" stroke-width="4.72" stroke-linecap="round" stroke-linejoin="round"/>
<path d="M434.624 9.69909C437.024 5.69909 439.674 3.45909 444.624 3.04909C447.695 2.79819 450.768 3.51349 453.413 5.09489C456.058 6.67629 458.142 9.04479 459.374 11.8691C459.204 11.4791 463.224 9.64909 463.634 9.48909C465.237 8.87629 466.922 8.50559 468.634 8.38909C473.2 8.14339 477.685 9.67049 481.152 12.6516C484.62 15.6328 486.802 19.8377 487.244 24.3891C487.464 27.0636 487.053 29.7524 486.044 32.2391" stroke="black" stroke-width="4.72" stroke-linecap="square" stroke-linejoin="round"/>
<path d="M503.844 146.461C503.844 146.461 513.184 177.521 459.784 179.201" stroke="black" stroke-width="4.72" stroke-miterlimit="10"/>
<path d="M226.194 457.648C226.104 434.938 248.424 428.828 259.114 429.028C325.364 430.288 335.354 323.148 335.354 323.148" stroke="black" stroke-width="4.72" stroke-linecap="round" stroke-linejoin="round"/>
<path d="M572.934 424C572.934 424 565.114 501.14 572.934 527.1C580.754 553.06 535.784 532.69 535.784 532.69" stroke="black" stroke-width="4.72" stroke-miterlimit="10"/>
<path d="M124.904 482.141H72.9142" stroke="black" stroke-width="4.72" stroke-linecap="round" stroke-linejoin="round"/>
<path d="M311.184 482.141H211.704" stroke="black" stroke-width="4.72" stroke-linecap="round" stroke-linejoin="round"/>
<path d="M197.434 482.141H138.704" stroke="black" stroke-width="4.72" stroke-linecap="round" stroke-linejoin="round"/>
<path d="M195.924 457.648H137.854" stroke="black" stroke-width="4.72" stroke-linecap="round" stroke-linejoin="round"/>
<path d="M242.194 457.648H210.844" stroke="black" stroke-width="4.72" stroke-linecap="round" stroke-linejoin="round"/>
<path d="M321.884 457.648H261.334" stroke="black" stroke-width="4.72" stroke-linecap="round" stroke-linejoin="round"/>
<path d="M123.344 457.648H113.074" stroke="black" stroke-width="4.72" stroke-linecap="round" stroke-linejoin="round"/>
<path d="M194.004 455.449H207.434C207.434 455.449 222.824 469.979 207.434 486.609V498.229H194.004" stroke="black" stroke-width="4.72" stroke-linecap="round" stroke-linejoin="round"/>
<path d="M134.864 455.449C134.864 455.449 150.254 469.979 134.864 486.609V498.229" stroke="black" stroke-width="4.72" stroke-linecap="round" stroke-linejoin="round"/>
<path d="M134.864 498.229H121.434V486.609C136.834 469.979 121.434 455.449 121.434 455.449H134.864" stroke="black" stroke-width="4.72" stroke-linecap="round" stroke-linejoin="round"/>
<path d="M194.004 455.449C194.004 455.449 209.404 469.979 194.004 486.609V498.229" stroke="black" stroke-width="4.72" stroke-linecap="round" stroke-linejoin="round"/>
<path d="M121.434 486.609H134.864" stroke="black" stroke-width="4.72" stroke-linecap="round" stroke-linejoin="round"/>
<path d="M194.004 486.609H207.434" stroke="black" stroke-width="4.72" stroke-linecap="round" stroke-linejoin="round"/>
<path d="M245.774 450.23C244.06 452.417 242.838 454.948 242.194 457.65C241.346 461.641 241.026 465.726 241.244 469.8C241.304 473.8 241.804 477.9 245.604 480C251.314 483.19 258.174 478.63 258.474 472.09C258.801 467.174 259.763 462.32 261.334 457.65C261.394 457.42 261.464 457.22 261.524 457.03" stroke="black" stroke-width="4.72" stroke-linecap="round" stroke-linejoin="round"/>
<path d="M261.524 457C266.284 456 273.374 453.39 276.984 446.66" stroke="black" stroke-width="4.72" stroke-linecap="round" stroke-linejoin="round"/>
<path d="M229.044 482.141C229.044 482.141 232.784 492.001 242.194 493.201C251.604 494.401 245.654 482.141 245.654 482.141C245.654 482.141 249.554 490.781 254.274 491.071C258.994 491.361 263.074 487.071 261.444 482.141C261.444 482.141 262.884 490.071 269.864 489.201C276.844 488.331 273.964 482.141 273.964 482.141" stroke="black" stroke-width="4.72" stroke-linecap="round" stroke-linejoin="round"/>
<g opacity="0.54">
<path opacity="0.54" d="M121.704 622.589L114.954 720.069C111.294 726.689 107.174 732.549 103.504 736.169C103.014 735.989 102.504 735.809 102.034 735.589C101.134 735.279 100.244 734.919 99.3942 734.589C85.7142 728.589 75.3942 717.419 72.2942 704.809C69.5742 693.719 72.0342 681.739 66.7542 671.319C60.3142 658.489 42.7542 650.439 40.6442 635.949C38.6442 622.399 50.8342 609.949 48.8642 596.689C46.5842 581.689 28.1642 572.769 24.7242 558.099C22.5742 548.979 24.4942 538.519 23.7242 529.099C22.8142 518.604 21.0372 508.202 18.4142 497.999C45.6042 495.999 73.2842 510.999 82.0942 532.469C89.2942 550.039 84.9542 570.569 96.2242 586.579C102.344 595.249 112.544 601.729 117.814 610.809C119.439 613.638 120.616 616.7 121.304 619.889C121.354 620.109 121.354 620.339 121.394 620.509C121.444 620.869 121.484 621.139 121.524 621.409C121.614 622.189 121.704 622.589 121.704 622.589Z" fill="#3FBDF1"/>
<path opacity="0.54" d="M121.754 622.551H121.704C121.704 622.551 121.614 622.151 121.524 621.391C121.609 621.699 121.669 622.013 121.704 622.331C121.754 622.411 121.754 622.501 121.754 622.551Z" fill="#3FBDF1"/>
</g>
<path d="M211.584 584.542C208.004 597.192 188.784 604.882 186.454 617.852C184.394 629.342 197.094 640.072 194.994 651.742C192.764 664.272 174.514 671.202 167.814 682.292C162.354 691.292 164.904 701.602 162.084 711.172C158.824 722.042 148.084 731.742 133.734 736.882C132.844 737.202 131.994 737.512 131.094 737.782C130.604 737.912 130.094 738.092 129.574 738.222C124.834 734.332 119.424 727.492 114.994 720.112L121.744 622.632H121.794C127.024 618.202 133.014 614.132 137.174 609.212C141.694 603.892 143.794 598.082 145.174 592.002H145.194V591.332C147.194 581.712 147.344 571.652 151.864 562.532C161.024 543.972 189.774 531.052 218.084 532.752C215.415 541.515 213.587 550.512 212.624 559.622C211.804 567.682 213.824 576.712 211.584 584.542Z" fill="#3FBDF1"/>
<path d="M145.194 591.25V591.92H145.064C145.134 591.69 145.194 591.47 145.194 591.25Z" fill="#3FBDF1"/>
<path d="M145.194 591.248C145.194 591.468 145.104 591.688 145.064 591.918C143.724 597.998 141.624 603.808 137.064 609.128C132.904 614.048 126.914 618.128 121.684 622.548C121.684 622.548 121.684 622.408 121.634 622.368C121.599 622.051 121.539 621.736 121.454 621.428C121.454 621.158 121.374 620.888 121.324 620.528C121.324 620.358 121.324 620.128 121.234 619.908C120.546 616.72 119.369 613.657 117.744 610.828C112.474 601.748 102.274 595.268 96.1542 586.598C96.1542 586.598 98.9242 540.898 122.304 526.988C144.514 513.838 145.194 583.638 145.194 591.248Z" fill="#3FBDF1"/>
<path d="M145.194 591.25V591.92H145.064C145.134 591.69 145.194 591.47 145.194 591.25Z" fill="#3FBDF1"/>
<path d="M121.704 622.37V622.59C121.704 622.59 121.614 622.19 121.524 621.43C121.609 621.738 121.669 622.052 121.704 622.37Z" fill="#3FBDF1"/>
<path d="M119.624 622.601C124.834 618.161 130.874 614.041 135.054 609.131C146.774 595.291 142.264 577.611 149.784 562.441C158.934 543.901 187.784 530.981 216.024 532.681C213.33 541.439 211.495 550.438 210.544 559.551C209.704 567.661 211.714 576.701 209.544 584.551C205.944 597.191 186.734 604.861 184.394 617.841C182.324 629.321 195.054 640.051 192.944 651.721C190.704 664.251 172.474 671.171 165.754 682.261C160.284 691.261 162.854 701.571 160.014 711.161C156.574 722.721 144.644 732.941 129.014 737.751C128.514 737.921 128.014 738.091 127.474 738.221C122.734 734.331 117.324 727.501 112.884 720.111" stroke="black" stroke-width="4.72" stroke-miterlimit="10"/>
<path d="M198.744 547.219C156.554 592.629 136.744 688.379 128.994 737.769C128.364 741.939 127.794 745.769 127.304 749.189" stroke="black" stroke-width="4.72" stroke-miterlimit="10"/>
<path d="M202.634 777L183.194 891.54C182.735 894.68 181.177 897.556 178.796 899.654C176.415 901.753 173.367 902.939 170.194 903H68.8342C65.6352 902.93 62.5662 901.718 60.1822 899.584C57.7982 897.449 56.2562 894.532 55.8342 891.36L37.9342 777H202.634Z" stroke="black" stroke-width="4.72" stroke-miterlimit="10"/>
<path d="M221.074 764.241C220.524 771.461 214.804 777.021 207.944 777.021H32.9442C26.1542 777.021 20.4842 771.581 19.8342 764.441C19.0842 756.281 25.1742 749.211 32.9442 749.211H207.944C215.644 749.211 221.704 756.141 221.074 764.241Z" stroke="black" stroke-width="4.72" stroke-miterlimit="10"/>
<path d="M101.424 736.189C108.934 728.729 118.124 712.129 122.204 698.559C125.554 687.369 119.644 675.859 118.294 664.389C116.174 646.389 125.104 627.099 115.694 610.819C110.454 601.739 100.254 595.279 94.1342 586.579C82.8542 570.579 87.1842 550.079 79.9742 532.509C71.1942 510.999 43.5142 496.049 16.3342 497.999C18.9322 508.215 20.6912 518.626 21.5942 529.129C22.4042 538.519 20.4642 548.979 22.5942 558.129C26.0442 572.799 44.4842 581.679 46.7442 596.709C48.7442 609.999 36.5242 622.429 38.5342 635.959C40.6942 650.469 58.1842 658.489 64.6542 671.339C69.9042 681.779 67.4442 693.739 70.1742 704.819C73.5942 718.659 85.6942 730.819 101.424 736.189Z" stroke="black" stroke-width="4.72" stroke-miterlimit="10"/>
<path d="M32.9242 514.859C73.4242 567.459 92.4842 678.359 99.9242 735.609C100.564 740.609 101.134 745.119 101.584 749.189" stroke="black" stroke-width="4.72" stroke-miterlimit="10"/>
<path d="M94.1342 586.581C94.1342 586.581 96.9141 540.881 120.284 526.981C143.654 513.081 143.194 591.001 143.194 591.001" stroke="black" stroke-width="4.72" stroke-miterlimit="10"/>
<path d="M119.624 622.6C119.624 622.6 114.844 596.45 123.214 570.75" stroke="black" stroke-width="4.72" stroke-miterlimit="10"/>
<path d="M657.524 482.141H570.034" stroke="black" stroke-width="4.72" stroke-linecap="round" stroke-linejoin="round"/>
<path d="M658.944 457.648H572.834" stroke="black" stroke-width="4.72" stroke-linecap="round" stroke-linejoin="round"/>
<path d="M45.0242 903H602.204" stroke="black" stroke-width="4.72" stroke-miterlimit="10"/>
</svg>
