<svg width="280" height="411" viewBox="0 0 280 411" fill="none" xmlns="http://www.w3.org/2000/svg">
<mask id="mask0_462_100" style="mask-type:luminance" maskUnits="userSpaceOnUse" x="0" y="66" width="280" height="221">
<path d="M0.509766 66.333H279.51V286.333H0.509766V66.333Z" fill="white"/>
</mask>
<g mask="url(#mask0_462_100)">
<path d="M239.625 67.0261H40.3648C15.6718 67.0261 0.509766 90.2401 0.509766 106.88V248.917C0.509766 269.479 17.2498 286.219 37.8118 286.219H242.177C262.74 286.219 279.479 269.479 279.479 248.917V105.854C279.479 85.5361 260.49 67.0261 239.625 67.0261ZM229.677 193.229C220.505 193.229 213.057 185.802 213.057 176.63C213.057 167.453 220.505 160.016 229.677 160.016C238.823 160.016 246.266 167.453 246.266 176.63C246.266 185.802 238.823 193.229 229.677 193.229Z" fill="#01AB90"/>
</g>
<mask id="mask1_462_100" style="mask-type:luminance" maskUnits="userSpaceOnUse" x="11" y="0" width="217" height="64">
<path d="M11.332 0.526123H227.332V63.667H11.332V0.526123Z" fill="white"/>
</mask>
<g mask="url(#mask1_462_100)">
<path d="M40.3638 53.7451H226.343V31.5471C226.343 20.797 226.343 0.786621 204.619 0.786621C199.697 0.786621 193.707 1.76062 185.775 3.85432C165.791 9.11992 48.7128 41.5781 46.9628 42.0941C29.5718 48.6411 18.5668 55.0891 11.6758 62.6561C19.7588 57.1821 29.4678 53.7451 40.3638 53.7451Z" fill="#01AB90"/>
</g>
<path d="M79.4545 388V318.182H103.864C108.727 318.182 112.739 319.023 115.898 320.705C119.057 322.364 121.409 324.602 122.955 327.42C124.5 330.216 125.273 333.318 125.273 336.727C125.273 339.727 124.739 342.205 123.67 344.159C122.625 346.114 121.239 347.659 119.511 348.795C117.807 349.932 115.955 350.773 113.955 351.318V352C116.091 352.136 118.239 352.886 120.398 354.25C122.557 355.614 124.364 357.568 125.818 360.114C127.273 362.659 128 365.773 128 369.455C128 372.955 127.205 376.102 125.614 378.898C124.023 381.693 121.511 383.909 118.08 385.545C114.648 387.182 110.182 388 104.682 388H79.4545ZM87.9091 380.5H104.682C110.205 380.5 114.125 379.432 116.443 377.295C118.784 375.136 119.955 372.523 119.955 369.455C119.955 367.091 119.352 364.909 118.148 362.909C116.943 360.886 115.227 359.273 113 358.068C110.773 356.841 108.136 356.227 105.091 356.227H87.9091V380.5ZM87.9091 348.864H103.591C106.136 348.864 108.432 348.364 110.477 347.364C112.545 346.364 114.182 344.955 115.386 343.136C116.614 341.318 117.227 339.182 117.227 336.727C117.227 333.659 116.159 331.057 114.023 328.92C111.886 326.761 108.5 325.682 103.864 325.682H87.9091V348.864ZM140.801 388V335.636H148.847V388H140.801ZM144.892 326.909C143.324 326.909 141.972 326.375 140.835 325.307C139.722 324.239 139.165 322.955 139.165 321.455C139.165 319.955 139.722 318.67 140.835 317.602C141.972 316.534 143.324 316 144.892 316C146.46 316 147.801 316.534 148.915 317.602C150.051 318.67 150.619 319.955 150.619 321.455C150.619 322.955 150.051 324.239 148.915 325.307C147.801 326.375 146.46 326.909 144.892 326.909ZM162.082 388V381.864L191.81 343.682V343.136H163.037V335.636H202.173V342.045L173.264 379.955V380.5H203.128V388H162.082Z" fill="#01AB90"/>
</svg>
